<svg xmlns="http://www.w3.org/2000/svg" width="37.113" height="37.113" viewBox="0 0 37.113 37.113">
  <path id="close-icon" d="M-1951.565,36.678-1965,23.243l-13.435,13.435a3,3,0,0,1-4.243,0,3,3,0,0,1,0-4.243L-1969.243,19l-13.435-13.435a3,3,0,0,1,0-4.243,3,3,0,0,1,4.243,0L-1965,14.757l13.435-13.435a3,3,0,0,1,4.244,0,3,3,0,0,1,0,4.243L-1960.758,19l13.435,13.435a3,3,0,0,1,0,4.243,2.99,2.99,0,0,1-2.121.879A2.991,2.991,0,0,1-1951.565,36.678Z" transform="translate(1983.557 -0.444)" fill="#deba47"/>
</svg>
