<svg xmlns="http://www.w3.org/2000/svg" width="1131.678" height="974.892" viewBox="0 0 1131.678 974.892">
  <defs>
    <style>
      .cls-1 {
        fill: #6c63ff;
      }

      .cls-2 {
        fill: #3f3d56;
      }

      .cls-3 {
        fill: #ffb9b9;
      }

      .cls-4 {
        opacity: 0.1;
      }

      .cls-5 {
        fill: #cfcce0;
      }
    </style>
  </defs>
  <g id="Right_art" data-name="Right art" transform="translate(0 0)">
    <path id="Path_1" data-name="Path 1" class="cls-1" d="M408.8,313.578S287.76,355.265,264.548,393.746,408.8,313.578,408.8,313.578Z" transform="translate(-127.991 -0.464)"/>
    <path id="Path_2" data-name="Path 2" class="cls-2" d="M214.677,450.44a5.9,5.9,0,0,1-4.592-1.694c-3.765-3.392-.688-9.8,1.953-14.334,35.411-60.7,213.459-124.669,221.019-127.362l16.282-5.8L435.4,311.465c-.515.378-52.312,38.292-105.337,74.011C247.624,441.01,223.149,450.44,214.677,450.44ZM417.233,318.4C370.481,336.491,244.489,388.8,216.4,436.956c-3.741,6.411-2.949,8.022-2.939,8.035.757.816,10.325,5.94,113.159-63.288C362.47,357.57,397.836,332.369,417.233,318.4Z" transform="translate(-142.999 -3.89)"/>
    <path id="Path_3" data-name="Path 3" class="cls-1" d="M407.433,281.719s-111.539-11.465-145.377,8.128S407.433,281.719,407.433,281.719Z" transform="translate(-129.251 -10.244)"/>
    <path id="Path_4" data-name="Path 4" class="cls-2" d="M265.409,304.1c-39.043,0-41.723-6.259-42.952-9.12-2.454-5.726,4.375-11.118,6.619-12.889,48.414-38.224,195.465.4,201.7,2.066l11.96,3.19-12.253,1.75c-.493.07-49.762,7.078-99.483,11.465C302,303.124,280.858,304.1,265.409,304.1Zm34.214-33.684c-27.5,0-52.657,3.984-67.416,15.637-4.453,3.515-5.558,5.887-5.107,6.935,1.132,2.639,11.935,10.618,103.456,2.542,34.1-3.01,67.993-7.255,85.992-9.636C393.487,280.591,343.564,270.42,299.624,270.42Z" transform="translate(-139.219 -13.888)"/>
    <path id="Path_5" data-name="Path 5" class="cls-1" d="M409.58,297.986s-56.1-134.713-42.511-148.047S409.58,297.986,409.58,297.986Z" transform="translate(-99.478 -46.155)"/>
    <path id="Path_6" data-name="Path 6" class="cls-2" d="M414.743,320.878l-6.976-17.825c-.17-.436-17.239-44.161-31.3-89.177-28.972-92.709-17.1-100.626-13.2-103.227a6.569,6.569,0,0,1,6.7-.566c21.883,10.2,40.6,173.217,42.658,191.772ZM367.109,114.472a1.874,1.874,0,0,0-1.041.379c-13.942,9.3,14.322,100.81,39.169,167.418-8.522-68.681-24.215-161.465-37.4-167.609a1.715,1.715,0,0,0-.73-.186Z" transform="translate(-101.538 -57.198)"/>
    <path id="Path_7" data-name="Path 7" class="cls-1" d="M416.468,318.413s30.113-136.164,61.659-136.164S416.468,318.413,416.468,318.413Z" transform="translate(-85.16 -36.959)"/>
    <path id="Path_8" data-name="Path 8" class="cls-2" d="M410.251,342.382l2.979-11.211c2.187-8.221,54.181-201.361,111.021-201.361,7.792,0,11.153,3.656,12.6,6.722,15.156,32.1-105.433,180.119-119.233,196.891Zm114-207.522c-45.368,0-90.465,143.391-102.832,185.89,40.69-50.556,121.794-158.918,110.868-182.061C531.838,137.742,530.479,134.86,524.25,134.86Z" transform="translate(-86.888 -51.531)"/>
    <path id="Path_9" data-name="Path 9" class="cls-1" d="M430.3,300.574s103.53-65.422,315.639-45.452S430.3,300.574,430.3,300.574Z" transform="translate(-81.316 -17.762)"/>
    <path id="Path_10" data-name="Path 10" class="cls-2" d="M424.773,306.665l5.42-4.646c1.1-.941,27.49-23.25,80.372-41.191,48.663-16.513,129.782-32.068,239.878-12.4,46.515,8.306,52.554,14.5,52.149,19.947-.4,5.386-1.337,18-187.184,29.692-90.818,5.714-182.585,8.372-183.5,8.4ZM650.524,244.29c-119.588,0-190.288,42.492-210.788,56.877,24.267-.777,100.146-3.412,175.367-8.145C787.8,282.155,797.386,270.269,797.555,268c.02-.243-.108-6.05-48-14.6a562.9,562.9,0,0,0-99.032-9.1Z" transform="translate(-82.852 -21.124)"/>
    <path id="Path_11" data-name="Path 11" class="cls-1" d="M481.676,295.891s181.347-2.422,191.535,16.944S481.676,295.891,481.676,295.891Z" transform="translate(-67.039 -5.406)"/>
    <path id="Path_12" data-name="Path 12" class="cls-2" d="M699.884,345.982c-57.885,0-197.022-41.565-215.491-47.161l-15.133-4.585,15.809-.355c23.2-.519,227.006-3.91,239.827,37.122,1.519,4.86-.242,7.979-1.988,9.739C719.259,344.423,711.094,345.982,699.884,345.982ZM501.667,298.7c85.062,24.93,203.175,53.1,217.655,38.487.784-.792,1.578-2.038.755-4.677C710.969,303.359,571.964,298.222,501.667,298.7Z" transform="translate(-70.49 -6.017)"/>
    <path id="Path_13" data-name="Path 13" class="cls-1" d="M454.012,311.6s109.535,50.627,88.131,66.205S454.012,311.6,454.012,311.6Z" transform="translate(-74.727 -1.013)"/>
    <path id="Path_14" data-name="Path 14" class="cls-2" d="M614,442.19c-52.985,0-160.87-127.444-165.888-133.408l-7.1-8.442,10.068,4.513c7.346,3.293,179.964,81.1,183.741,120.076.5,5.169-1.768,9.689-6.559,13.072A24.13,24.13,0,0,1,614,442.19ZM459.417,314.2C501.076,362,593.766,456.176,625.35,433.874c3.364-2.373,4.776-5.061,4.449-8.459C627.08,397.393,514.279,339.612,459.417,314.2Z" transform="translate(-78.339 -4.143)"/>
    <path id="Path_15" data-name="Path 15" class="cls-1" d="M596.284,359.026s90.9,37.877,70.7,63.128S596.284,359.026,596.284,359.026Z" transform="translate(-35.191 12.166)"/>
    <path id="Path_16" data-name="Path 16" class="cls-1" d="M463.892,335.314S653.275,542.373,635.6,555,463.892,335.314,463.892,335.314Z" transform="translate(-71.982 5.576)"/>
    <path id="Path_17" data-name="Path 17" class="cls-1" d="M436.228,323.458s79.735,132.8,63.463,145.709S436.228,323.458,436.228,323.458Z" transform="translate(-79.669 2.282)"/>
    <path id="Path_18" data-name="Path 18" class="cls-2" d="M529.378,524.182a9.338,9.338,0,0,1-2.925-.491c-29.231-9.6-88.147-182.1-94.768-201.733L425.8,304.495l10.369,15.237c.308.455,31.3,46.071,58.8,93.263C545.811,500.235,541.6,517.391,534,522.7A7.95,7.95,0,0,1,529.378,524.182ZM442.893,338.947c21.49,61,64.755,173.253,85.136,179.949a3.2,3.2,0,0,0,3.08-.328c4.172-2.92,8.579-18.8-40.493-103.01-17.41-29.875-36.23-59.126-47.723-76.612Z" transform="translate(-82.568 -2.988)"/>
    <path id="Path_19" data-name="Path 19" class="cls-1" d="M418.969,319.506s-71.762,211.75-27.726,209.568S418.969,319.506,418.969,319.506Z" transform="translate(-96.142 1.183)"/>
    <path id="Path_20" data-name="Path 20" class="cls-2" d="M379.271,566.528c-7.728,0-13.671-3.021-17.676-8.988-28.41-42.342,55.75-229.081,59.345-237.01l3.839-8.462.972,9.241c.8,7.562,19.022,185.762-22.265,233.368-6.527,7.524-14.293,11.5-23.079,11.829C380.025,566.522,379.646,566.528,379.271,566.528Zm42.345-235.014c-16.638,38.256-79.322,188.2-55.826,223.212,3.2,4.774,7.921,6.986,14.431,6.734,7.437-.276,13.8-3.578,19.451-10.093,34.513-39.794,25.189-181.4,21.943-219.853Z" transform="translate(-102.033 -0.884)"/>
    <path id="Path_21" data-name="Path 21" class="cls-1" d="M414.388,327.743S293.928,465.519,304.952,480.029,414.388,327.743,414.388,327.743Z" transform="translate(-116.347 3.472)"/>
    <path id="Path_22" data-name="Path 22" class="cls-2" d="M278.031,539.552a7.054,7.054,0,0,1-4.417-1.462,7.777,7.777,0,0,1-2.865-5.741C267.723,498.122,428.07,319.772,434.9,312.2l16.142-17.91-12.08,20.866C433.809,324.046,312.5,533,279.834,539.371a9.44,9.44,0,0,1-1.8.182ZM421.614,334.718c-53.126,60.338-147.936,173.426-145.835,197.187a2.764,2.764,0,0,0,.937,2.2,2.459,2.459,0,0,0,2.15.308c22.577-4.4,101.439-130.173,142.748-199.694Z" transform="translate(-125.666 -5.825)"/>
    <path id="Path_23" data-name="Path 23" class="cls-1" d="M410.315,279.684S305.295,155.631,208.18,167.653,410.315,279.684,410.315,279.684Z" transform="translate(-148.43 -41.243)"/>
    <path id="Path_24" data-name="Path 24" class="cls-2" d="M433.09,286.248l-8.266-1.889c-.663-.152-67.039-15.375-132.662-34.8C157.784,209.8,157.35,191.511,157.209,185.5c-.173-7.25,7.208-12.857,22.563-17.143,56.985-15.907,121.329,15.426,165.257,44.517A549.484,549.484,0,0,1,427.2,280.144ZM212.384,169.093a115.856,115.856,0,0,0-31.256,4.132c-12.275,3.425-18.975,7.743-18.872,12.158.575,24.244,149.6,67.475,254.989,92.043-24.913-23.9-119.035-108.334-204.862-108.334Z" transform="translate(-157.206 -42.011)"/>
    <path id="Path_25" data-name="Path 25" class="cls-1" d="M326.027,248.8s-138.881-10.1-128.781,15.151S326.027,248.8,326.027,248.8Z" transform="translate(-146.226 -19.018)"/>
    <path id="Path_26" data-name="Path 26" class="cls-1" d="M330.593,181.53s-7.575-35.352-20.2-27.776S330.593,181.53,330.593,181.53Z" transform="translate(-115.441 -45.173)"/>
    <path id="Path_27" data-name="Path 27" class="cls-1" d="M425.688,226.611s34.65-145.6,18.946-146.136S425.688,226.611,425.688,226.611Z" transform="translate(-82.598 -65.241)"/>
    <path id="Path_28" data-name="Path 28" class="cls-2" d="M420.724,262.159l-.284-19.336c-.091-6.21-2.017-152.333,16.98-171.616a7.973,7.973,0,0,1,5.746-2.655,6.722,6.722,0,0,1,5.41,2.77c14.618,18.724-19.252,156.434-23.163,172.076ZM443.167,73.6c-.252,0-1.016,0-2.148,1.149C428.472,87.487,425.56,172.2,425.39,222.021,439.3,162.656,453.472,85.8,444.6,74.432A1.7,1.7,0,0,0,443.167,73.6Z" transform="translate(-84.083 -68.554)"/>
    <path id="Path_29" data-name="Path 29" class="cls-1" d="M550.836,217.239s15.151-37.877,30.3-27.776S550.836,217.239,550.836,217.239Z" transform="translate(-47.821 -35.43)"/>
    <path id="Path_30" data-name="Path 30" class="cls-1" d="M439.374,473.634s-20.2,148.982,17.676,146.456S439.374,473.634,439.374,473.634Z" transform="translate(-80.29 44.014)"/>
    <path id="Path_31" data-name="Path 31" class="cls-3" d="M530.742,481.144s-19.355-32.258-19.355-54.838c0,0-33.871-35.484-24.193-45.161s30.645,27.419,30.645,27.419-38.709-43.548-27.419-50S538.806,400.5,538.806,400.5l12.9-6.452s-27.407-67.6-8.064-69.354c8.871-.806,29.032,64.516,29.032,64.516l20.968,53.225s8.064,19.355,4.839,30.645a212.885,212.885,0,0,0-4.839,20.968Z" transform="translate(-65.989 2.623)"/>
    <path id="Path_32" data-name="Path 32" class="cls-4" d="M566.173,472.372s11.29-17.742,7.2-44.833-26.559-42.264-26.559-42.264-14.516,11.29,0,40.322c0,0-17.742,16.129-3.226,41.935" transform="translate(-51.42 19.46)"/>
    <path id="Path_33" data-name="Path 33" class="cls-3" d="M571.221,472.372s11.29-17.742,7.2-44.833-26.559-42.264-26.559-42.264-14.516,11.29,0,40.322c0,0-17.742,16.129-3.226,41.935" transform="translate(-50.017 19.46)"/>
    <path id="Path_34" data-name="Path 34" class="cls-4" d="M540.441,386.674l-8.871-13.709s-41.935-6.452-37.1,8.064,24.193,8.064,24.193,8.064l11.29,11.29Z" transform="translate(-63.591 15.642)"/>
    <path id="Path_35" data-name="Path 35" class="cls-3" d="M547,386.92l-12.9-17.742s-41.935-6.452-37.1,8.064,24.193,8.064,24.193,8.064l11.29,11.29Z" transform="translate(-62.89 14.59)"/>
    <path id="Path_36" data-name="Path 36" class="cls-3" d="M614.717,481.222l-8.065,64.516L732.458,553.8V476.384Z" transform="translate(168.582 132.382)"/>
    <path id="Path_37" data-name="Path 37" class="cls-5" d="M1194.575,938.948,1092.554,734.9c-6.095-20.183-25.128-53.055-84.264-74.175L963.936,623.2l-33.064-1.187L798.614,602.661S697,596.209,630.873,636.531l-17.741-8.065S584.1,525.241,597,451.048L522.81,444.6S482.488,620.4,501.843,673.627s90.322,91.935,90.322,91.935l62.9,62.9,24.193,109.677h377.417l6.005-28.776,29.478,28.776Z" transform="translate(-62.896 35.945)"/>
    <path id="Path_38" data-name="Path 38" class="cls-5" d="M1012.185,632.989c-118.828,32.087-235.619,34.356-349.942.494-13.438-3.98-22.626-15.78-22.626-29.172V270.354c0-14.943,11.37-27.69,26.865-30.12,107.845-16.913,222.093-15.6,341.586.631,15.789,2.145,27.51,15.038,27.51,30.214V603.606C1035.577,617.279,1026.008,629.257,1012.185,632.989Z" transform="translate(-23.15 -24.215)"/>
    <path id="Path_39" data-name="Path 39" class="cls-2" d="M747.308,377.578S719.977,337.632,736.8,327.12s42.048,18.921,42.048,18.921,31.536-27.331,48.355-16.819-16.819,48.355-16.819,48.355,25.229,6.307,27.331,23.126,10.512,60.969-25.229,63.072c-19.147,1.126-29.846-4.384-35.655-9.744a11.717,11.717,0,0,0-15.433-.183c-12.12,10.211-33.947,21.981-49.827-6.892C705.261,402.807,747.308,377.578,747.308,377.578Z" transform="translate(-3.334 2.669)"/>
    <path id="Path_40" data-name="Path 40" class="cls-2" d="M917.51,380.869s27.331-39.945,10.512-50.457-42.048,18.921-42.048,18.921S854.439,322,837.619,332.514s16.819,48.355,16.819,48.355-25.229,6.307-27.331,23.126-10.512,60.969,25.229,63.072c19.147,1.126,29.846-4.384,35.655-9.744a11.718,11.718,0,0,1,15.433-.183c12.12,10.211,33.947,21.981,49.827-6.892C959.558,406.1,917.51,380.869,917.51,380.869Z" transform="translate(28.294 3.583)"/>
    <path id="Path_41" data-name="Path 41" class="cls-2" d="M717.945,455.726s39.439,31.752,123.537,29.75,111.294-5.435,129.27-25.257,23.3,3.072,17.722,18.079-12.751,40.616-54.646,44.767c-27.581,2.733-87.194,3.38-124.709,3.5a191.724,191.724,0,0,1-84.3-18.753q-.522-.253-1.04-.508a47.727,47.727,0,0,1-26.592-42.777c0-7.072,1.248-10.894,5.852-12.286C711.337,449.734,717.945,455.726,717.945,455.726Z" transform="translate(-7.151 37.899)"/>
    <path id="Path_42" data-name="Path 42" class="cls-2" d="M854.754,678.762A636.986,636.986,0,0,1,665.19,650.005a37.031,37.031,0,0,1-26.185-35.484V223.287a37,37,0,0,1,31.1-36.638c115.824-19.09,244.076-18.843,381.191.736a37.29,37.29,0,0,1,31.842,36.753V613.694a37.333,37.333,0,0,1-27.073,35.743c-67.144,19.054-133.522,28.917-197.294,29.313C857.433,678.758,856.088,678.762,854.754,678.762Zm-4.468-503.508a1105.681,1105.681,0,0,0-179.739,14.1,34.272,34.272,0,0,0-28.8,33.933V614.521a34.3,34.3,0,0,0,24.259,32.866c122.539,38.146,253.519,37.948,389.305-.588l.375,1.319-.375-1.319a34.58,34.58,0,0,0,25.081-33.106V224.137A34.536,34.536,0,0,0,1050.9,190.1a1421.453,1421.453,0,0,0-200.618-14.844Z" transform="translate(-23.319 -39.664)"/>
    <path id="Path_43" data-name="Path 43" class="cls-2" d="M836.89,225.137c-30.2,0-56.047-1.355-77.209-3.191-66.557-5.773-102.422-17.424-102.776-17.541l.859-2.6c.352.116,36,11.686,102.282,17.424,61.175,5.3,161.7,6.565,293.193-17.471l.493,2.7C967.347,220.244,894.269,225.137,836.89,225.137Z" transform="translate(-18.345 -31.539)"/>
  </g>
</svg>
