<svg xmlns="http://www.w3.org/2000/svg" width="946" height="580.797" viewBox="0 0 946 580.797"><defs><style>.a{fill:#d0cde1;}.b{fill:#3f3d56;}.c{fill:#977b22;}.d{fill:#deba47;}.e{fill:#a0616a;}.f{fill:#2f2e41;}.g{fill:#575a89;}</style></defs><g transform="translate(0 0.003)"><path class="a" d="M1073,655.427H738.852c11.2-57.151,10.159-117.641,0-180.621H1073C1064.52,538.877,1064.25,599.2,1073,655.427Z" transform="translate(-127 -159.603)"/><rect class="b" width="167.074" height="4.516" transform="translate(739.415 373.906)"/><rect class="b" width="167.074" height="4.516" transform="translate(739.415 388.581)"/><rect class="b" width="167.074" height="4.516" transform="translate(739.415 403.256)"/><rect class="b" width="167.074" height="4.516" transform="translate(739.415 417.932)"/><rect class="b" width="167.074" height="4.516" transform="translate(739.415 432.607)"/><rect class="c" width="55.315" height="55.315" transform="translate(651.363 377.857)"/><path class="b" d="M490.949,314.718h0a62.421,62.421,0,0,1,62.421,62.421V495.893h-243.6A181.174,181.174,0,0,1,490.95,314.718Z"/><path class="d" d="M180.444,635.2a5.392,5.392,0,0,0-3.179,1.119c-2.71-7.161-6.9-11.763-11.618-11.763s-8.908,4.6-11.618,11.763a5.392,5.392,0,0,0-3.179-1.119c-5.354,0-9.695,9.055-9.695,20.225h48.984C190.138,644.257,185.8,635.2,180.444,635.2Z" transform="translate(-127 -159.603)"/><path class="a" d="M340.641,656.359h-93.7a627.008,627.008,0,0,0,0-106.115h93.7C335.482,586.588,335.18,622.016,340.641,656.359Z" transform="translate(-127 -159.603)"/><rect class="b" width="67.733" height="4.516" transform="translate(133.49 412.09)"/><rect class="b" width="67.733" height="4.516" transform="translate(133.49 426.765)"/><rect class="b" width="67.733" height="4.516" transform="translate(133.49 441.441)"/><rect class="b" width="67.733" height="4.516" transform="translate(133.49 456.116)"/><rect class="b" width="67.733" height="4.516" transform="translate(133.49 470.792)"/><rect class="b" width="827.467" height="2.258" transform="translate(0 494.696)"/><path class="e" d="M328.1,483.106l7.909,42.181,34.272-26.364-20.431-24.385Z"/><path class="e" d="M532.411,487.06,524.5,529.241,490.23,502.878l16.477-25.7Z"/><path class="f" d="M528.913,408.076l-19.772,21.091S405.006,475.3,405.006,499.029s25.045,126.543,35.59,134.452a45.871,45.871,0,0,1,14.5,18.454l29-14.5s-2.636-7.909,0-11.863,0-6.591,0-6.591-3.954,1.318-2.636-2.636,1.318-5.273,0-6.591-5.273-13.182-5.273-13.182,1.318-47.454-17.136-64.59c0,0,85.68-25.045,96.226-42.181s13.182-79.09,13.182-79.09Z" transform="translate(-127 -159.603)"/><path class="f" d="M468.278,669.072s-2.636-14.5-18.454-10.545v17.136l-14.5,29s-30.318,34.272-2.636,31.636,43.5-19.772,43.5-27.681,19.772-19.772,19.772-19.772,21.091-22.409,11.863-30.318-18.243-21.32-18.349-14.615S468.278,669.072,468.278,669.072Z" transform="translate(-127 -159.603)"/><path class="f" d="M585.594,398.849l19.772,34.272S709.5,479.257,709.5,502.984s-25.045,126.543-35.59,134.452a45.871,45.871,0,0,0-14.5,18.454l-29-14.5s2.636-7.909,0-11.863,0-6.591,0-6.591,3.954,1.318,2.636-2.636-1.318-5.273,0-6.591,5.273-13.182,5.273-13.182-1.318-47.454,17.136-64.59c0,0-93.589-32.954-104.135-50.09-13.505-21.946-3.631-112.067-6.591-81.726Z" transform="translate(-127 -159.603)"/><path class="f" d="M646.229,673.026s2.636-14.5,18.454-10.545v17.136l14.5,29s30.318,34.272,2.636,31.636-43.5-19.772-43.5-27.681S618.549,692.8,618.549,692.8s-21.091-22.409-11.863-30.318,18.243-21.32,18.349-14.615S646.229,673.026,646.229,673.026Z" transform="translate(-127 -159.603)"/><circle class="e" cx="34.272" cy="34.272" r="34.272" transform="translate(430.913 13.841)"/><path class="e" d="M568.458,223.534S567.14,251.215,550,259.124s27.681,35.59,27.681,35.59l32.954-17.136s-7.909-38.227-1.318-46.136S568.458,223.534,568.458,223.534Z" transform="translate(-127 -159.603)"/><path class="a" d="M615.912,259.124s-45.921,31.315-59.869-4.115c0,0-33.721,13.342-32.4,22.569S521,413.348,521,413.348s55.363,15.818,71.181,0S615.912,259.124,615.912,259.124Z" transform="translate(-127 -159.603)"/><path class="g" d="M606.748,247.346l5.209,5.187S667.32,276.26,666,289.442s-26.363,75.135-26.363,75.135-13.182,47.454-10.545,60.635,6.591,17.136,3.954,21.091,0,11.863,0,14.5-15.817,13.182-15.817,13.182-25.045-22.409-34.272-26.363-15.818-34.272-9.227-60.635,7.909-83.044,7.909-83.044l18.454-27.681S600.221,256.659,606.748,247.346Z" transform="translate(-127 -159.603)"/><path class="g" d="M564.38,241.988s-10.422-1.318-13.058,5.273-47.454,21.091-47.454,26.363S517.05,344.8,517.05,344.8l2.636,38.227-23.727,17.136s5.273,17.136-1.318,23.727-14.5,23.727-6.591,26.363,56.681-15.818,58-35.59-3.954-34.272,5.273-48.772,10.545-71.181,10.545-71.181Z" transform="translate(-127 -159.603)"/><path class="f" d="M624.193,178.146a39.582,39.582,0,0,0-22.516-17.213l-6.884,5.507,2.676-6.424a36.438,36.438,0,0,0-6.8-.393l-6.194,7.964,2.564-7.691a39.2,39.2,0,0,0-27.045,16.087c-7.883,11.367-9.214,27.175-1.46,38.631,2.128-6.541,4.712-12.678,6.84-19.219a19.361,19.361,0,0,0,5.043.025l2.59-6.042.723,5.787c8.026-.7,19.931-2.234,27.54-3.641l-.74-4.439,4.427,3.689c2.331-.537,3.715-1.023,3.6-1.4,5.659,9.123,12.584,14.95,18.243,24.073C628.947,200.582,631.421,189.885,624.193,178.146Z" transform="translate(-127 -159.603)"/><ellipse class="e" cx="2.768" cy="4.614" rx="2.768" ry="4.614" transform="translate(494.053 44.817)"/><path class="c" d="M609.671,444.134H550.1a5.653,5.653,0,0,1-5.653-5.653l-2.625-77.943a5.653,5.653,0,0,1,5.653-5.653H612.3a5.653,5.653,0,0,1,5.653,5.653l-2.625,77.943a5.653,5.653,0,0,1-5.653,5.653Z" transform="translate(-127 -159.603)"/><circle class="a" cx="5.25" cy="5.25" r="5.25" transform="translate(447.637 213.657)"/><path class="e" d="M633.4,407.906s-52.618,18.038-39.61,29.524,47.664-16.88,47.664-16.88Z" transform="translate(-127 -159.603)"/><path class="g" d="M644.911,281.533s19.772-3.954,25.045,13.182,31.636,80.408,23.727,89.635-36.909,34.272-46.136,39.545-13.182,5.273-13.182,5.273L622.5,434.44l-3.954-30.318,13.529-8.014,20.743-17.031-11.863-35.59Z" transform="translate(-127 -159.603)"/><path class="e" d="M527.247,398.679s52.618,18.038,39.61,29.524-47.664-16.88-47.664-16.88Z" transform="translate(-127 -159.603)"/><path class="g" d="M515.732,272.306s-19.772-3.954-25.045,13.182-31.636,80.407-23.727,89.634,36.909,34.272,46.136,39.545,13.182,5.273,13.182,5.273l11.863,5.273,3.954-30.318-13.529-8.014-20.743-17.031,19.113-46.795Z" transform="translate(-127 -159.603)"/><path class="d" d="M319.882,630.093l44.495-13.939a163.078,163.078,0,0,0-16.62-53.051l-44.495,13.939a100.031,100.031,0,0,1,16.62,53.051Z" transform="translate(-127 -159.603)"/><path class="d" d="M764.031,633.634h46.627a163.077,163.077,0,0,0,0-55.594H764.031a100.031,100.031,0,0,1,0,55.594Z" transform="translate(-127 -159.603)"/><path class="d" d="M978.518,643.794h46.627a163.083,163.083,0,0,0,0-55.594H978.518A100.032,100.032,0,0,1,978.518,643.794Z" transform="translate(-127 -159.603)"/></g></svg>